# xmcd CD database file
#
# Track frame offsets:
#	187
#	12140
#	31400
#	47450
#	63657
#	77202
#	87865
#	116727
#	124597
#	145280
#
# Disc length: 2097 seconds
#
# Revision: 7
# Processed by: cddbd v1.5.2PL0 Copyright (c) Steve Scherf et al.
# Submitted via: CDex 1.77
#
DISCID=7f082f0a
DTITLE=B.B. King - Live At The Regal
DYEAR=1965
DGENRE=Other
TTITLE0=Every Day I Have The Blues
TTITLE1=Sweet Little Angel
TTITLE2=It's My Own Fault
TTITLE3=How Blue Can You Get
TTITLE4=Please Love Me
TTITLE5=You Upset Me Baby
TTITLE6=Worry, Worry
TTITLE7=Woke Up This Mornin'
TTITLE8=You Done Lost Your Good Thing Now
TTITLE9=Help The Poor
EXTD=A Classic Revisited\n--------------\n\nB.B. King: Live at the Regal\nThe definitive recording of blues live in performance...\nThis unique Regal session is the definitive statement of B.B.\nKing's phenomenal rapport with a crowd, of the miraculous\n
EXTD=vibrations that can exist between audience and performer.\nIn essence, it tells you how, where and why he ultimately\nbecame King of the Blues...\n\n\nIntroduced by Dicsc Jockey E. Rodney Jones\nProduced by Johnny Pate\n\n(c) 1971 MCA Records, Inc.\
EXTD=nMCABD 31106\n7673-11106-2\n YEAR: 1965
EXTT0=
EXTT1=
EXTT2=
EXTT3=
EXTT4=
EXTT5=
EXTT6=
EXTT7=
EXTT8=
EXTT9=
PLAYORDER=
